<?xml version="1.0" standalone="no"?>
<!DOCTYPE svg PUBLIC "-//W3C//DTD SVG 20010904//EN"
 "http://www.w3.org/TR/2001/REC-SVG-20010904/DTD/svg10.dtd">
<svg version="1.0" xmlns="http://www.w3.org/2000/svg"
 width="700.000000pt" height="700.000000pt" viewBox="0 0 700.000000 700.000000"
 preserveAspectRatio="xMidYMid meet">
<metadata>
Created by potrace 1.14, written by Peter Selinger 2001-2017
</metadata>
<g transform="translate(0.000000,700.000000) scale(0.100000,-0.100000)"
fill="#000000" stroke="none">
<path d="M0 6699 c0 -282 1 -301 17 -296 14 3 1181 508 1348 582 25 11 -78 13
-667 14 l-698 1 0 -301z"/>
<path d="M1313 6427 l-1313 -572 0 -359 c0 -337 1 -358 17 -353 13 4 4039
1758 4228 1842 25 11 -98 13 -795 14 l-825 1 -1312 -573z"/>
<path d="M3955 6209 c-995 -434 -2293 -1000 -2882 -1257 l-1073 -467 0 -358
c0 -296 2 -358 14 -355 7 2 1582 687 3499 1523 l3487 1520 0 93 0 92 -617 0
-618 -1 -1810 -790z"/>
<path d="M3498 4641 l-3498 -1525 0 -358 c0 -197 2 -358 5 -358 10 0 6980
3041 6987 3048 5 5 7 168 6 363 l-3 354 -3497 -1524z"/>
<path d="M3497 3271 l-3497 -1525 0 -358 c0 -197 2 -358 5 -358 10 0 6980
3041 6987 3048 5 5 7 168 6 363 l-3 355 -3498 -1525z"/>
<path d="M3497 1901 l-3497 -1525 0 -188 0 -188 394 0 394 0 3098 1351 c1705
742 3102 1354 3107 1358 4 4 6 167 5 362 l-3 355 -3498 -1525z"/>
<path d="M4640 1031 l-2355 -1026 822 -3 822 -2 1528 666 c840 366 1531 669
1536 673 4 4 6 167 5 363 l-3 356 -2355 -1027z"/>
<path d="M6212 346 l-783 -341 782 -3 c430 -1 784 -1 786 1 2 2 2 157 1 344
l-3 341 -783 -342z"/>
</g>
</svg>
